<svg width="50" height="47" viewBox="0 0 50 47" fill="none" xmlns="http://www.w3.org/2000/svg">
<path d="M42.6513 40.0817C47.366 35.6789 50.0091 29.7154 50 23.501C49.9949 23.1174 49.8278 22.7511 49.5344 22.4815C49.241 22.2118 48.8454 22.0607 48.433 22.0607C48.0205 22.0607 47.6249 22.2118 47.3315 22.4815C47.0381 22.7511 46.8709 23.1174 46.8659 23.501C46.8725 28.947 44.5551 34.173 40.4228 38.0307C38.4168 39.9466 36.0186 41.4693 33.3695 42.5092C30.7207 43.5488 27.8748 44.0845 24.9998 44.0845C22.1247 44.0845 19.2788 43.5488 16.6299 42.5092C13.981 41.4693 11.5828 39.9466 9.57677 38.0307C5.45002 34.1692 3.1337 28.9453 3.1337 23.5001C3.1337 18.0548 5.45002 12.8309 9.57677 8.9693C11.5711 7.06816 13.9513 5.55421 16.5794 4.51524C19.2075 3.47629 22.0311 2.93297 24.8866 2.9168C25.4962 2.93456 26.0743 3.17323 26.4976 3.58187C26.9209 3.99049 27.1558 4.53679 27.1521 5.10424C27.1487 5.67168 26.907 6.21539 26.4787 6.61944C26.0503 7.02346 25.4693 7.25583 24.8594 7.267C24.8029 7.26711 24.7464 7.27002 24.6904 7.27572C20.346 7.40587 16.224 9.09332 13.1861 11.9852C9.97781 14.9896 8.17721 19.0526 8.17721 23.2874C8.17721 27.5223 9.97781 31.5851 13.1861 34.5895C14.7534 36.0831 16.626 37.27 18.6937 38.0803C20.7614 38.8906 22.9826 39.308 25.2262 39.308C27.4698 39.308 29.691 38.8906 31.7587 38.0803C33.8262 37.27 35.6989 36.0831 37.2663 34.5895C40.4795 31.5883 42.2808 27.5233 42.2744 23.2874C42.281 22.6202 42.1454 21.9582 41.8756 21.34C41.6055 20.7219 41.2067 20.1596 40.7018 19.6856C40.1968 19.2116 39.5961 18.8354 38.9341 18.5786C38.272 18.3218 37.562 18.1896 36.8446 18.1896C36.1272 18.1896 35.4172 18.3218 34.7551 18.5786C34.0931 18.8354 33.4923 19.2116 32.9874 19.6856C32.4825 20.1596 32.0837 20.7219 31.8136 21.34C31.5437 21.9582 31.4081 22.6202 31.4148 23.2874C31.4148 23.3299 31.4177 23.3699 31.4214 23.4108C31.4177 23.4516 31.4148 23.4924 31.4148 23.5341C31.4251 24.6974 31.0635 25.8372 30.3761 26.8092C29.6889 27.781 28.7067 28.5408 27.5544 28.9927C26.4021 29.4443 25.1313 29.5675 23.9037 29.3465C22.6759 29.1252 21.5465 28.57 20.6587 27.7507C19.7708 26.9315 19.1645 25.8855 18.9168 24.7452C18.6691 23.605 18.791 22.422 19.2672 21.3464C19.7434 20.2706 20.5523 19.3508 21.5913 18.7035C22.6303 18.0562 23.8527 17.7106 25.1031 17.7105C25.3106 17.7129 25.5164 17.6769 25.7087 17.6047C25.901 17.5325 26.076 17.4255 26.2235 17.2899C26.371 17.1543 26.4883 16.9928 26.5681 16.8147C26.6481 16.6367 26.6893 16.4457 26.6893 16.2528C26.6893 16.0599 26.6481 15.8688 26.5681 15.6908C26.4883 15.5128 26.371 15.3513 26.2235 15.2157C26.076 15.0801 25.901 14.9731 25.7087 14.9009C25.5164 14.8287 25.3106 14.7927 25.1031 14.795C23.2474 14.8046 21.4362 15.3253 19.8981 16.2914C18.3601 17.2575 17.1641 18.6258 16.461 20.2235C15.758 21.8212 15.5794 23.5769 15.9477 25.269C16.3161 26.9611 17.2149 28.5136 18.5309 29.7311C19.8468 30.9484 21.5208 31.7759 23.3418 32.1092C25.1626 32.4424 27.049 32.2665 28.7625 31.6036C30.476 30.9407 31.9403 29.8207 32.9703 28.3845C34.0002 26.9483 34.5498 25.2605 34.5498 23.5341C34.5498 23.4916 34.5468 23.4516 34.5431 23.4108C34.5468 23.3699 34.5498 23.3291 34.5498 23.2874C34.5436 23.0034 34.5985 22.7211 34.7112 22.4569C34.8237 22.1929 34.992 21.9523 35.2056 21.7495C35.4194 21.5466 35.6746 21.3853 35.9562 21.2753C36.2377 21.1653 36.5402 21.1087 36.8455 21.1087C37.1508 21.1087 37.4533 21.1653 37.7348 21.2753C38.0164 21.3853 38.2716 21.5466 38.4854 21.7495C38.699 21.9523 38.8673 22.1929 38.9798 22.4569C39.0925 22.7211 39.1474 23.0034 39.1412 23.2874C39.1454 26.7554 37.6697 30.083 35.0382 32.5394C33.7624 33.7588 32.2369 34.7278 30.5517 35.3896C28.8666 36.0514 27.0559 36.3922 25.2266 36.3922C23.3976 36.3922 21.587 36.0514 19.9018 35.3896C18.2167 34.7278 16.6911 33.7588 15.4153 32.5394C12.7874 30.0808 11.3123 26.7545 11.3123 23.2874C11.3123 19.8202 12.7874 16.494 15.4153 14.0354C16.6921 12.8175 18.2177 11.8494 19.9024 11.1878C21.5872 10.5261 23.3969 10.1844 25.2257 10.1825C25.3663 10.1822 25.5063 10.1641 25.6419 10.1289C26.976 9.93858 28.1874 9.29674 29.044 8.32654C29.9007 7.35633 30.342 6.12606 30.2835 4.87176C30.2249 3.61744 29.6704 2.4274 28.7266 1.52994C27.7828 0.632467 26.5162 0.0907546 25.1695 0.00872218C25.1132 0.00302198 25.0565 0.00011043 24.9998 0C24.9682 0 24.9369 0 24.9053 0C24.8898 0 24.8747 0 24.8596 0C24.8445 0 24.8289 0.0017007 24.8139 0.00212617C21.5561 0.02596 18.3355 0.649456 15.338 1.83667C12.3404 3.02387 9.62518 4.75131 7.34872 6.91939C2.64176 11.3268 0 17.2873 0 23.5001C0 29.7128 2.64176 35.6732 7.34872 40.0806C9.64622 42.2707 12.3915 44.0113 15.4229 45.1994C18.4543 46.3878 21.7107 47 25.0002 47C28.2898 47 31.546 46.3878 34.5777 45.1994C37.6091 44.0113 40.3542 42.2707 42.6517 40.0806L42.6513 40.0817Z" fill="url(#paint0_linear_28_7)"/>
<defs>
<linearGradient id="paint0_linear_28_7" x1="7.25" y1="39.997" x2="36.7768" y2="8.93496" gradientUnits="userSpaceOnUse">
<stop stop-color="#41287B"/>
<stop offset="0.123" stop-color="#462779"/>
<stop offset="0.284" stop-color="#572775"/>
<stop offset="0.465" stop-color="#72266E"/>
<stop offset="0.663" stop-color="#982565"/>
<stop offset="0.87" stop-color="#C82459"/>
<stop offset="0.99" stop-color="#E72452"/>
</linearGradient>
</defs>
</svg>
